<svg xmlns="http://www.w3.org/2000/svg" width="200" height="200" viewBox="0 0 44 44" fill="none">
  <!-- Biometric Touch ID Fingerprint Logo matching Apple SF Symbol & uploaded reference -->
  <!-- Outer Broken Ring Layer -->
  <path
    d="M15 6.5C19 4.2 25 4.2 29 6.5"
    stroke="#1d1d1f"
    stroke-width="2.4"
    stroke-linecap="round"
  />
  <path
    d="M33.5 9.5C37.5 12.5 39.8 16.5 40.5 21"
    stroke="#1d1d1f"
    stroke-width="2.4"
    stroke-linecap="round"
  />
  <path
    d="M40.5 25.5C39.8 30 37.5 34 34 37"
    stroke="#1d1d1f"
    stroke-width="2.4"
    stroke-linecap="round"
  />
  <path
    d="M29.5 40C26.5 41.5 21.5 41.5 18.5 40"
    stroke="#1d1d1f"
    stroke-width="2.4"
    stroke-linecap="round"
  />
  <path
    d="M14 37C10.5 34 8.2 30 7.5 25.5"
    stroke="#1d1d1f"
    stroke-width="2.4"
    stroke-linecap="round"
  />
  <path
    d="M7.5 21C8.2 16.5 10.5 12.5 14.5 9.5"
    stroke="#1d1d1f"
    stroke-width="2.4"
    stroke-linecap="round"
  />

  <!-- Second Layer Inward -->
  <path
    d="M17.5 11.5C20.5 9.8 26.5 9.8 29.5 11.5"
    stroke="#1d1d1f"
    stroke-width="2.4"
    stroke-linecap="round"
  />
  <path
    d="M33 14.5C35.8 17.5 36.5 21.5 36 25.5C35.2 29.5 33 33 29.5 35.5"
    stroke="#1d1d1f"
    stroke-width="2.4"
    stroke-linecap="round"
  />
  <path
    d="M14.5 14.5C11.8 17.5 11 21.5 11.5 25.5C12.2 29.5 14.5 33 18 35.5"
    stroke="#1d1d1f"
    stroke-width="2.4"
    stroke-linecap="round"
  />

  <!-- Third Layer Inward -->
  <path
    d="M19 16.5C21.5 15.2 25.5 15.2 28 16.5"
    stroke="#1d1d1f"
    stroke-width="2.4"
    stroke-linecap="round"
  />
  <path
    d="M30.5 19.5C32.2 22 32.5 25 32 28.2C31.2 31.5 29.5 33.8 27.2 35.5"
    stroke="#1d1d1f"
    stroke-width="2.4"
    stroke-linecap="round"
  />
  <path
    d="M16.5 19.5C14.8 22 14.5 25 15 28.2C15.8 31.5 17.5 33.8 19.8 35.5"
    stroke="#1d1d1f"
    stroke-width="2.4"
    stroke-linecap="round"
  />

  <!-- Fourth Layer: Inner Arch Framing Core -->
  <path
    d="M18.2 32.5C17.5 28 18.2 24.2 20.2 22.2C21.8 20.8 25.2 20.8 26.8 22.2C28.8 24.2 29.5 28 28.8 32.5"
    stroke="#1d1d1f"
    stroke-width="2.4"
    stroke-linecap="round"
  />

  <!-- Central Hairpin Whorl Core -->
  <path
    d="M21.2 33V26.2C21.2 24.5 22.2 23.5 23.5 23.5C24.8 23.5 25.8 24.5 25.8 26.2V33"
    stroke="#1d1d1f"
    stroke-width="2.4"
    stroke-linecap="round"
  />

  <!-- Center Core Ridge -->
  <path
    d="M23.5 27.2V32.5"
    stroke="#1d1d1f"
    stroke-width="2.4"
    stroke-linecap="round"
  />
</svg>
